<svg width="1280" height="720" viewBox="0 0 1280 720" fill="none" xmlns="http://www.w3.org/2000/svg"><g id="iMac - 1"><path fill="#fff" d="M0 0h1280v720H0z"/><path id="Vector 3" d="m545.62 366.001 28.566 23.539c-4.767 38.253 15.32 55.627 25.959 59.531l-9.65 55.631-9.404-33.819-8.811 29.596-.615-38.027-16.27 18.69 8.86-29.024-24.691 6.712 19.243-24.712-30.284-13.007 28.485-8.188-25.631-19.749 28.063 2.233-13.82-29.406Z" fill="#FFA5A5"/><path id="Vector 2" d="M586 294c29.6-12 38.667 1 39.5 9 1.5 21.5-11.5 43.5-52.5 37-32.8-5.2-47-42.833-50-61 8.667 10 33.4 27 63 15Z" fill="#FFA5A5"/><path id="Vector 1" d="M641.663 282.539c-2.4-34.4 14.666-54 23.5-59.5 24-20.8 52.666-10 64-2l27-9.5-8.5 17c-10.8 18.8-7.167 43.833-4 54 23.5 64 3.5 109-16.5 135s-67 28.5-101.5 27-40.5-28-43.5-47c-2.4-15.2 22.333-36 35-44.5 9.166-9.167 26.9-36.1 24.5-70.5Z" fill="#FFA5A5"/><path id="Vector 4" d="m750.582 221.264-15.469 9.645c-2.698 4.515-3.089 10.578-2.948 13.046l18.417-22.691Z" fill="#FFA5A5"/></g></svg>