<svg width="1280" height="720" viewBox="0 0 1280 720" fill="none" xmlns="http://www.w3.org/2000/svg">
  <g id="iMac - 1">
    <path fill="#fff" d="M0 0h1280v720H0z"/>
    <g id="Group 1" fill="#FFA5A5">
      <path id="Vector 3" d="m547.62 458.149 28.566 23.538c-4.767 38.254 15.32 55.627 25.959 59.532l-9.65 55.631-9.404-33.82-8.811 29.596-.615-38.027-16.27 18.69 8.86-29.023-24.691 6.711 19.243-24.712-30.284-13.007 28.485-8.188-25.631-19.749 28.063 2.234-13.82-29.406Z"/>
      <path id="Vector 2" d="M588 386.147c29.6-12 38.667 1 39.5 9 1.5 21.5-11.5 43.5-52.5 37-32.8-5.2-47-42.833-50-61 8.667 10 33.4 27 63 15Z"/>
      <path id="Vector 1" d="M643.663 374.686c-2.4-34.4 14.666-54 23.5-59.5 24-20.8 52.666-10 64-2l27-9.5-8.5 17c-10.8 18.8-7.167 43.833-4 54 23.5 64 3.5 109-16.5 135s-67 28.5-101.5 27-40.5-28-43.5-47c-2.4-15.2 22.333-36 35-44.5 9.166-9.167 26.9-36.1 24.5-70.5Z"/>
    </g>
    <g id="Group 6" fill="#FFA5A5">
      <path id="Vector 3_2" d="m547.62 458.149 28.566 23.538c-4.767 38.254 15.32 55.627 25.959 59.532l-9.65 55.631-9.404-33.82-8.811 29.596-.615-38.027-16.27 18.69 8.86-29.023-24.691 6.711 19.243-24.712-30.284-13.007 28.485-8.188-25.631-19.749 28.063 2.234-13.82-29.406Z"/>
      <path id="Vector 2_2" d="M588 386.147c29.6-12 38.667 1 39.5 9 1.5 21.5-11.5 43.5-52.5 37-32.8-5.2-47-42.833-50-61 8.667 10 33.4 27 63 15Z"/>
      <path id="Vector 1_2" d="M643.663 374.686c-2.4-34.4 14.666-54 23.5-59.5 24-20.8 52.666-10 64-2l27-9.5-8.5 17c-10.8 18.8-7.167 43.833-4 54 23.5 64 3.5 109-16.5 135s-67 28.5-101.5 27-40.5-28-43.5-47c-2.4-15.2 22.333-36 35-44.5 9.166-9.167 26.9-36.1 24.5-70.5Z"/>
    </g>
    <g id="Group 2" fill="#FFA5A5">
      <path id="Vector 3_3" d="m542.62 352.149 28.566 23.538c-4.767 38.254 15.32 55.627 25.959 59.532l-9.65 55.631-9.404-33.82-8.811 29.596-.615-38.027-16.27 18.69 8.86-29.023-24.691 6.711 19.243-24.712-30.284-13.007 28.485-8.188-25.631-19.749 28.063 2.234-13.82-29.406Z"/>
      <path id="Vector 2_3" d="M597.339 271.353c31.938.386 35.269 15.881 32.942 23.581-6.934 20.406-27.434 35.663-62.726 13.807-28.234-17.485-26.769-57.681-22.507-75.594 4.123 12.574 20.354 37.82 52.291 38.206Z"/>
      <path id="Vector 1_3" d="M644.663 264.686c-2.4-34.4 14.666-54 23.5-59.5 24-20.8 52.666-10 64-2l27-9.5-8.5 17c-10.8 18.8-7.167 43.833-4 54 23.5 64 3.5 109-16.5 135s-67 28.5-101.5 27-40.5-28-43.5-47c-2.4-15.2 22.333-36 35-44.5 9.166-9.167 26.9-36.1 24.5-70.5Z"/>
      <path id="Vector 4" d="m761.582 211.411-15.469 9.646c-2.698 4.514-3.089 10.578-2.948 13.045l18.417-22.691Z"/>
    </g>
    <g id="Group 3" fill="#FFA5A5">
      <path id="Vector 3_4" d="m533.462 249.113 29.992 21.69c-2.344 38.478 18.798 54.55 29.662 57.776l-6.121 56.129-11.518-33.159-6.927 30.093-3.013-37.913-15.058 19.679 7.011-29.525-24.218 8.256 17.646-25.877-31.044-11.071 27.911-9.968-26.824-18.093 28.148.459-15.647-28.476Z"/>
      <path id="Vector 2_4" d="M615.439 150.148c25.255 19.554 18.575 33.927 12.079 38.669-17.831 12.106-43.385 11.929-58.379-26.78-11.995-30.968 13.398-62.163 27.593-73.89-4.287 12.519-6.548 42.447 18.707 62.001Z"/>
      <path id="Vector 1_4" d="M644.365 146.849c-4.949-34.127 10.614-54.94 19.014-61.082 22.388-22.526 51.778-13.886 63.674-6.75l26.22-11.48-7.213 17.585c-9.374 19.55-3.89 44.244.023 54.148 28.191 62.076 11.59 108.438-6.423 135.852-18.013 27.415-64.697 33.4-99.213 34.468-34.516 1.067-42.469-24.914-46.872-43.638-3.523-14.98 19.596-37.56 31.596-46.978 8.46-9.822 24.143-37.999 19.194-72.125Z"/>
      <path id="Vector 4_2" d="m767.869 87.8-25.558 9.805c-5.268 5.885-7.575 14.713-8.071 18.392L767.869 87.8Z"/>
    </g>
    <g id="Group 4" fill="#FFA5A5">
      <path id="Vector 3_5" d="m546.615 379.291 28.636 23.452c-4.65 38.268 15.489 55.58 26.14 59.453l-9.481 55.66-9.506-33.791-8.722 29.623-.73-38.026-16.213 18.74 8.771-29.05-24.67 6.786 19.168-24.77-30.324-12.916 28.46-8.274-25.69-19.671 28.07 2.148-13.909-29.364Z"/>
      <path id="Vector 2_5" d="M592.674 310.202c31.644-4.34 37.23 10.492 36.067 18.451-3.842 21.207-21.86 39.328-59.996 22.93-30.509-13.118-35.002-53.09-33.435-71.436 5.936 11.827 25.721 34.395 57.364 30.055Z"/>
      <path id="Vector 1_5" d="M647.692 294.686c-2.4-34.4 14.666-54 23.5-59.5 24-20.8 52.666-10 64-2l27-9.5-8.5 17c-10.8 18.8-7.167 43.833-4 54 23.5 64 3.5 109-16.5 135s-67 28.5-101.5 27-40.5-28-43.5-47c-2.4-15.2 22.333-36 35-44.5 9.166-9.167 26.9-36.1 24.5-70.5Z"/>
    </g>
    <g id="Group 5" fill="#FFA5A5">
      <path id="Vector 3_6" d="m541.371 491.73 24.04 28.145c-11.342 36.843 5.419 57.442 15.218 63.137l-19.171 53.107-3.383-34.939-13.821 27.615 6.003-37.556-19.27 15.578 13.769-27.042-25.482 2.319 23.245-20.992-27.563-18.073 29.475-3.113-21.809-23.902 27.248 7.076-8.499-31.36Z"/>
      <path id="Vector 2_6" d="M591.041 437.44c26.761-17.435 38.145-6.407 40.492 1.287 5.58 20.817-2.976 44.896-44.463 46.35-33.189 1.163-54.319-33.064-60.735-50.322 10.418 8.159 37.944 20.12 64.706 2.685Z"/>
      <path id="Vector 1_6" d="M650.457 426.229c3.615-34.294 23.828-50.63 33.483-54.511 27.25-16.312 53.603-.695 63.374 9.153l28.24-4.663-11.325 15.264c-13.903 16.637-14.676 41.921-13.324 52.483 12.02 67.111-15.497 107.95-39.711 130.078-24.214 22.129-70.933 16.423-104.648 8.95-33.714-7.473-35.017-34.613-34.669-53.845.278-15.386 28.25-31.571 42.201-37.74 10.62-7.434 32.764-30.876 36.379-65.169Z"/>
    </g>
  </g>
</svg>
